<svg width="30" height="30" viewBox="0 0 30 30" fill="none" xmlns="http://www.w3.org/2000/svg">
<path d="M15 30C6.71371 30 0 23.2863 0 15C0 6.71371 6.71371 0 15 0C23.2863 0 30 6.71371 30 15C30 23.2863 23.2863 30 15 30ZM16.748 21.3145L12.1815 16.9355H23.2258C24.0302 16.9355 24.6774 16.2883 24.6774 15.4839V14.5161C24.6774 13.7117 24.0302 13.0645 23.2258 13.0645H12.1815L16.748 8.68548C17.3347 8.12298 17.3468 7.18548 16.7722 6.61089L16.1069 5.95161C15.5383 5.38306 14.619 5.38306 14.0565 5.95161L6.03024 13.9718C5.46169 14.5403 5.46169 15.4597 6.03024 16.0222L14.0565 24.0484C14.625 24.6169 15.5444 24.6169 16.1069 24.0484L16.7722 23.3891C17.3468 22.8145 17.3347 21.877 16.748 21.3145Z" fill="black"/>
</svg>
